<?xml version="1.0" encoding="UTF-8" standalone="yes"?>
<svg width="280" height="280" viewBox="0 0 280 280" version="1.2" baseProfile="tiny-ps" xmlns="http://www.w3.org/2000/svg">
  <title>bimi-svg-tiny-12-ps</title>
  <defs id="defs18"/>
  <g stroke-width="1" fill-rule="evenodd" id="g18">
    <path id="background" d="M 0,0 H 280 V 280 H 0 Z" fill="#ffffff" fill-opacity="1" stroke-width="1.23806"/>
    <path d="M 164,180.61095 V 199 h 4 v 0 c 39.7645,0 72,32.2355 72,72 v 9 H 40 v -9 c 0,-39.7645 32.235498,-72 72,-72 v 0 h 4 V 180.61095 C 98.762634,172.42237 86.372225,155.68701 84.305139,135.88124 78.480311,135.05779 74,130.05211 74,124 v -14 c 0,-5.94599 4.324573,-10.881927 10,-11.834083 V 92 92 c 0,-30.927946 25.07205,-56 56,-56 v 0 0 c 30.92795,0 56,25.072054 56,56 v 6.165917 c 5.67543,0.952156 10,5.888093 10,11.834083 v 14 c 0,6.05211 -4.48031,11.05779 -10.30514,11.88124 -2.06708,19.80577 -14.4575,36.54113 -31.69486,44.72971 z" id="use21" fill="#f8d25c" fill-opacity="1"/>
    <path id="path13" d="m 84,130 v 5.80859 c 0.104029,0.0175 0.199768,0.0574 0.304688,0.0723 0.01236,0.11841 0.03573,0.23338 0.04883,0.35157 C 84.126744,134.18532 84,132.10757 84,130 Z m 112,0 c 0,2.10757 -0.12674,4.18532 -0.35352,6.23242 0.0131,-0.11818 0.0365,-0.23316 0.0488,-0.35156 0.10492,-0.0148 0.20066,-0.0547 0.30469,-0.0723 z m -111.242188,9.15625 c 0.05619,0.3415 0.119297,0.68014 0.181641,1.01953 -0.06231,-0.33922 -0.125471,-0.6782 -0.181641,-1.01953 z m 110.484378,0 c -0.0562,0.34133 -0.11933,0.68031 -0.18164,1.01953 0.0623,-0.33939 0.12544,-0.67803 0.18164,-1.01953 z m -109.830081,3.31836 c 0.07968,0.35008 0.155979,0.70128 0.242188,1.04883 -0.08615,-0.34732 -0.162558,-0.69899 -0.242188,-1.04883 z m 109.175781,0 c -0.0796,0.34984 -0.15604,0.70151 -0.24219,1.04883 0.0862,-0.34755 0.16251,-0.69875 0.24219,-1.04883 z m -107.003906,7.24805 c 0.120742,0.32071 0.248573,0.63719 0.375,0.95507 -0.12639,-0.31778 -0.254292,-0.63446 -0.375,-0.95507 z m 104.832036,0 c -0.12071,0.32061 -0.24861,0.63729 -0.375,0.95507 0.12642,-0.31788 0.25425,-0.63436 0.375,-0.95507 z m -103.558598,3.08398 c 0.140576,0.31474 0.279598,0.62977 0.425781,0.94141 -0.146135,-0.31153 -0.285248,-0.62678 -0.425781,-0.94141 z m 102.285158,0 c -0.14053,0.31463 -0.27965,0.62988 -0.42578,0.94141 0.14618,-0.31164 0.2852,-0.62667 0.42578,-0.94141 z m -100.582033,3.49609 c 0.05709,0.10709 0.10825,0.21755 0.166015,0.32422 -0.0577,-0.10654 -0.108991,-0.21725 -0.166015,-0.32422 z m 98.878903,0 c -0.057,0.10697 -0.10832,0.21768 -0.16601,0.32422 0.0578,-0.10667 0.10892,-0.21713 0.16601,-0.32422 z m -97.097653,3.10157 c 0.159253,0.25756 0.326945,0.5089 0.490234,0.76367 -0.16316,-0.25457 -0.331104,-0.50631 -0.490234,-0.76367 z m 95.316403,0 c -0.15913,0.25736 -0.32707,0.5091 -0.49023,0.76367 0.16329,-0.25477 0.33098,-0.50611 0.49023,-0.76367 z m -93.531247,2.69922 c 0.204896,0.29223 0.410794,0.58299 0.621094,0.87109 -0.210237,-0.28802 -0.416258,-0.57895 -0.621094,-0.87109 z m 91.746097,0 c -0.20484,0.29214 -0.41086,0.58307 -0.6211,0.87109 0.2103,-0.2881 0.4162,-0.57886 0.6211,-0.87109 z m -89.542972,2.93554 c 0.121998,0.15185 0.237785,0.30844 0.361328,0.45899 -0.123497,-0.15049 -0.239375,-0.30719 -0.361328,-0.45899 z m 87.339842,0 c -0.12195,0.1518 -0.23783,0.3085 -0.36133,0.45899 0.12355,-0.15055 0.23933,-0.30714 0.36133,-0.45899 z m -84.890623,2.85742 c 0.196157,0.21326 0.400205,0.41873 0.599609,0.62891 -0.199284,-0.21005 -0.403568,-0.41579 -0.599609,-0.62891 z m 82.441403,0 c -0.19604,0.21312 -0.40032,0.41886 -0.59961,0.62891 0.19941,-0.21018 0.40346,-0.41565 0.59961,-0.62891 z m -80.17187,2.31836 c 0.24419,0.23657 0.48983,0.471 0.73828,0.70313 -0.24824,-0.23194 -0.49429,-0.46675 -0.73828,-0.70313 z m 77.90234,0 c -0.24399,0.23638 -0.49003,0.47119 -0.73828,0.70313 0.24845,-0.23213 0.49409,-0.46656 0.73828,-0.70313 z m -75.30078,2.36719 c 0.18469,0.15782 0.36403,0.32112 0.55078,0.47656 -0.18672,-0.15541 -0.36612,-0.31877 -0.55078,-0.47656 z m 72.69922,0 c -0.18466,0.15779 -0.36406,0.32115 -0.55078,0.47656 0.18676,-0.15544 0.36609,-0.31874 0.55078,-0.47656 z m -69.62891,2.45508 c 0.18393,0.13613 0.37491,0.26256 0.56055,0.39648 -0.18562,-0.13391 -0.37664,-0.26036 -0.56055,-0.39648 z m 66.5586,0 c -0.18391,0.13612 -0.37493,0.26257 -0.56055,0.39648 0.18565,-0.13392 0.37662,-0.26035 0.56055,-0.39648 z m -63.92774,1.82227 c 0.29563,0.19375 0.5931,0.38399 0.89258,0.57226 -0.29919,-0.1881 -0.59723,-0.3787 -0.89258,-0.57226 z m 61.29688,0 c -0.29535,0.19356 -0.59339,0.38416 -0.89258,0.57226 0.29948,-0.18827 0.59695,-0.37851 0.89258,-0.57226 z m -58.36524,1.79296 c 0.25162,0.14366 0.49987,0.29179 0.75391,0.43164 -0.2541,-0.13988 -0.50223,-0.28794 -0.75391,-0.43164 z m 55.4336,0 c -0.25168,0.1437 -0.4998,0.29176 -0.75391,0.43164 0.25404,-0.13985 0.50229,-0.28798 0.75391,-0.43164 z m -51.83594,1.89844 c 0.0403,0.0192 0.0788,0.0414 0.11914,0.0606 v 7.99219 c 7.27513,3.45674 15.40954,5.39643 24,5.39643 8.59046,0 16.72487,-1.93969 24,-5.39648 v -7.99219 c 0.0403,-0.0192 0.0789,-0.0413 0.11914,-0.0606 C 156.8142,184.04267 148.63672,186 140,186 c -8.63672,0 -16.8142,-1.95733 -24.11914,-5.44922 z" fill="#000000" fill-opacity="0.101961"/>
    <path d="M 116,183.07089 C 98.081301,185.07594 84.279842,190.55183 84.004203,204.64497 58.146433,215.56809 40,241.16463 40,270.99949 v 0 V 280 h 200 v -9.00051 c 0,-29.83486 -18.14643,-55.4314 -44.0042,-66.35451 C 195.72016,190.55183 181.9187,185.07594 164,183.07089 V 202 v 0 c 0,13.25483 -10.74517,24 -24,24 v 0 c -13.25483,0 -24,-10.74517 -24,-24 z" id="use20" fill="#5199e4" fill-opacity="1"/>
    <path d="M 110,231.73905 V 280 h -7 v -51.84974 c 2.20375,1.3098 4.54677,2.51053 7,3.58879 z m 67,-3.58879 V 268.5 c 0,1.933 -1.567,3.5 -3.5,3.5 -1.933,0 -3.5,-1.567 -3.5,-3.5 v -36.76095 c 2.45323,-1.07826 4.79625,-2.27899 7,-3.58879 z" fill-rule="evenodd" id="path3" fill="#f4f4f4"/>
    <path id="use20-7" d="m 84.091414,203.09941 c -0.03995,0.4574 -0.07788,1.06862 -0.08721,1.54556 -3.155344,1.33292 -6.201671,2.88782 -9.1084,4.63877 6.617068,16.36972 35.691636,28.65868 65.097946,28.65868 -27.16144,0 -54.000633,-15.47181 -55.902332,-34.84301 z m 55.902336,34.84301 c 29.40631,0 58.50403,-12.29181 65.12109,-28.66153 -2.90674,-1.75095 -5.96369,-3.30299 -9.11904,-4.63591 -0.009,-0.47694 -0.0473,-1.08818 -0.0872,-1.54558 -1.9017,19.3712 -28.7534,34.84302 -55.91484,34.84302 z" fill="#000000" fill-opacity="0.160784"/>
    <path d="M 121.11784,149.12808 C 122.17571,158.6198 130.22599,166 140,166 c 9.80421,0 17.87401,-7.42586 18.89176,-16.95995 0.0819,-0.7673 -0.77502,-2.04005 -1.84899,-2.04005 -14.89402,0 -26.30485,0 -33.95595,0 -1.0802,0 -2.07481,1.17844 -1.96898,2.12808 z" id="use14" fill="#000000" fill-opacity="0.698039"/>
    <path id="path16" d="m 135,158 a 11,11 0 0 0 -7.67187,3.15625 C 130.69028,164.16797 135.13091,166 140,166 c 1.85261,0 3.64306,-0.26535 5.33594,-0.75977 A 11,11 0 0 0 135,158 Z" fill="#ff4f6d" fill-opacity="1"/>
    <path id="circle6" d="m 145,158 a 11,11 0 0 0 -10.31055,7.24609 C 136.37493,165.73582 138.15653,166 140,166 c 4.87817,0 9.32506,-1.83958 12.68945,-4.86133 A 11,11 0 0 0 145,158 Z" fill="#ff4f6d" fill-opacity="1"/>
    <path id="path15" d="m 125,147 c 0,2.77 2.23,5 5,5 h 21 c 2.77,0 5,-2.23 5,-5 z" fill="#ffffff" fill-opacity="1"/>
    <path d="m 128,130 c 0,4.41828 5.37258,8 12,8 v 0 c 6.62742,0 12,-3.58172 12,-8" id="path8" fill="#000000" fill-opacity="0.16"/>
    <path d="M 158.16017,112.44731 C 160.00668,108.64851 164.16442,106 168.99758,106 c 4.8161,0 8.96154,2.62984 10.81777,6.40712 0.55141,1.12208 -0.23325,2.04036 -1.02474,1.3599 -2.4511,-2.10724 -5.93189,-3.42323 -9.79303,-3.42323 -3.74037,0 -7.12382,1.23496 -9.56004,3.22785 -0.89075,0.72865 -1.81744,-0.0133 -1.27737,-1.12433 z" id="path10" fill="#000000" fill-opacity="0.6"/>
    <path d="M 100.16017,112.44731 C 102.00668,108.64851 106.16442,106 110.99758,106 c 4.8161,0 8.96154,2.62984 10.81777,6.40712 0.55141,1.12208 -0.23325,2.04036 -1.02474,1.3599 -2.4511,-2.10724 -5.93189,-3.42323 -9.79303,-3.42323 -3.74037,0 -7.12382,1.23496 -9.56004,3.22785 -0.89075,0.72865 -1.817439,-0.0133 -1.27737,-1.12433 z" id="path9" fill="#000000" fill-opacity="0.6"/>
    <path d="m 170.45263,88.148407 c 5.80702,0.268245 15.19513,4.48786 14.95326,10.343787 -0.008,0.191671 -0.28953,0.27582 -0.42708,0.128394 -2.7549,-2.959314 -22.31536,-5.949675 -29.20493,-4.365012 -0.63053,0.145238 -1.10958,-0.476789 -0.71021,-0.926134 3.42211,-3.848253 10.18649,-5.426419 15.38896,-5.181035" id="path12" fill="#000000" fill-opacity="0.6" fill-rule="evenodd"/>
    <path d="m 110.54738,88.148408 c -5.80702,0.268244 -15.195132,4.487859 -14.95326,10.343786 0.008,0.191671 0.289532,0.27582 0.427082,0.128394 2.754901,-2.959314 22.315358,-5.949674 29.204928,-4.365011 0.63053,0.145238 1.10958,-0.476789 0.7102,-0.926135 -3.4221,-3.848252 -10.18649,-5.426418 -15.38895,-5.181034" id="path11" fill="#000000" fill-opacity="0.6"/>
    <path d="m 101.25193,52.022115 c 0.123,-0.0544 -0.18226,-0.0753 -0.9158,-0.0626 0.89153,-0.0018 1.1968,0.019 0.9158,0.0626 M 93.116978,36.301592 c -0.0021,-0.0196 0.01678,0.1511 0,0 M 200.76506,70.765666 c -0.26411,-3.316932 -0.73211,-6.61378 -1.51838,-9.854584 -0.62445,-2.575733 -1.47767,-5.033548 -2.48667,-7.491039 -0.60931,-1.484666 -2.03247,-3.523937 -2.19969,-5.12555 -0.16485,-1.57764 1.0662,-3.325355 1.32896,-5.162156 0.25503,-1.787561 0.21163,-3.667124 -0.1551,-5.438487 -0.83304,-4.022821 -3.59391,-7.763805 -7.85701,-8.812434 -0.95181,-0.234217 -2.96375,0.05442 -3.63631,-0.499856 -0.77113,-0.635592 -1.3081,-2.800879 -2.00622,-3.669391 -1.99042,-2.475957 -5.0948,-4.070443 -8.36875,-3.514543 -2.41097,0.40915 -1.0265,0.90771 -2.83389,-0.511194 -1.00496,-0.788821 -1.75591,-1.99327 -2.73193,-2.847204 -1.46724,-1.282845 -3.15048,-2.381039 -4.89192,-3.28227 -4.55683,-2.358038 -9.7539,-4.072062 -14.84399,-4.9075311 -9.28523,-1.5241886 -19.19523,-0.1953423 -28.19549,2.2193871 -4.47843,1.201534 -8.98714,2.72637 -13.14662,4.742964 -1.7835,0.864625 -2.81302,1.581852 -4.67256,1.808294 -2.928755,0.35667 -5.409032,0.338852 -8.183363,1.58088 -8.5363,3.821972 -12.381201,12.68883 -9.059473,21.174074 0.668181,1.706573 1.572883,3.205169 2.820088,4.58358 1.520734,1.680657 2.070823,1.349903 0.76104,3.282594 -1.958787,2.889965 -3.610062,5.971709 -4.954499,9.171696 -3.528979,8.401665 -4.119441,17.864268 -3.889649,26.824424 0.08041,3.136816 0.214989,6.312182 0.709564,9.418871 0.213643,1.34472 0.27353,3.873156 1.282194,4.870924 0.511734,0.506012 1.240812,0.788175 1.968208,0.586675 1.70948,-0.473616 1.12171,-1.73508 1.16141,-2.906163 0.199849,-5.883595 -0.06998,-11.088512 1.329297,-16.901162 1.033561,-4.294616 2.756163,-8.194984 4.98848,-12.035098 2.838593,-4.884206 5.90294,-9.173639 9.806723,-13.355844 0.91782,-0.983515 1.11834,-1.40044 2.34906,-1.471709 0.93195,-0.05378 2.29523,0.584407 3.20128,0.805342 1.99782,0.486898 3.99933,0.968289 6.03348,1.296127 3.73993,0.602873 7.44319,0.643366 11.21676,0.525124 7.42637,-0.232272 14.8847,-0.753185 22.08497,-2.623354 4.7819,-1.241703 9.02146,-3.470809 13.60183,-5.104817 0.0817,-0.02915 1.22971,-0.847131 1.4309,-0.813764 0.28093,0.04633 1.97696,1.825787 2.26327,2.049961 2.22559,1.745447 4.66684,2.478224 7.07041,3.829746 2.96341,1.666404 0.0935,-0.718199 1.72798,1.35865 0.47641,0.604816 0.72033,1.726334 1.10253,2.41149 1.21592,2.182781 2.90757,4.101218 4.93095,5.623463 1.95509,1.470736 4.89327,2.181161 5.89016,4.095386 0.76877,1.476892 1.02784,3.484091 1.64824,5.06076 1.62739,4.135232 3.77661,7.991543 5.92582,11.886404 1.73135,3.138759 3.6252,5.880679 3.81765,9.467463 0.0669,1.248506 -1.12104,8.737605 1.77273,6.459903 0.42897,-0.337556 1.35386,-4.155965 1.54395,-4.803867 0.77114,-2.632748 1.04534,-5.381147 1.39457,-8.086136 0.69442,-5.379528 0.92253,-10.497951 0.46901,-15.916029" id="use13" fill="#724133" fill-opacity="1"/>
  </g>
</svg>