<?xml version="1.0" encoding="UTF-8" standalone="yes"?>
<svg width="280" height="280" viewBox="0 0 264 280" version="1.2" baseProfile="tiny-ps" xmlns="http://www.w3.org/2000/svg">
  <title>bimi-svg-tiny-12-ps</title>
  <defs id="defs18"/>
  <g stroke-width="1" fill-rule="evenodd" id="g18">
    <path id="background" d="M -8,0 H 272 V 280 H -8 Z" fill="#ffffff" fill-opacity="1" stroke-width="1.23806"/>
    <path d="M 124,144.61095 V 163 h 4 v 0 c 39.7645,0 72,32.2355 72,72 v 9 H 0 v -9 c 0,-39.7645 32.235498,-72 72,-72 v 0 h 4 V 144.61095 C 58.762634,136.42237 46.372225,119.68701 44.305139,99.881238 38.480311,99.057787 34,94.05211 34,88 V 74 C 34,68.054007 38.324573,63.118073 44,62.165917 V 56 56 C 44,25.072054 69.072054,0 100,0 v 0 0 c 30.92795,0 56,25.072054 56,56 v 6.165917 c 5.67543,0.952156 10,5.88809 10,11.834083 v 14 c 0,6.05211 -4.48031,11.057787 -10.30514,11.881238 C 153.62778,119.68701 141.23736,136.42237 124,144.61095 Z" id="use21" transform="translate(32,36)" fill="#f8d25c" fill-opacity="1"/>
    <path id="path13" d="m 44,94 v 5.808594 c 0.104029,0.01753 0.199768,0.05743 0.304688,0.07227 0.01236,0.118405 0.03573,0.233376 0.04883,0.351566 C 44.126744,98.18532 44,96.107568 44,94 Z m 112,0 c 0,2.107568 -0.12674,4.18532 -0.35352,6.23242 0.0131,-0.11818 0.0365,-0.233156 0.0488,-0.351561 0.10492,-0.01483 0.20066,-0.05474 0.30469,-0.07227 z m -111.242188,9.15625 c 0.05619,0.3415 0.119297,0.68014 0.181641,1.01953 -0.06231,-0.33922 -0.125471,-0.6782 -0.181641,-1.01953 z m 110.484378,0 c -0.0562,0.34133 -0.11933,0.68031 -0.18164,1.01953 0.0623,-0.33939 0.12544,-0.67803 0.18164,-1.01953 z m -109.830081,3.31836 c 0.07968,0.35008 0.155979,0.70128 0.242188,1.04883 -0.08615,-0.34732 -0.162558,-0.69899 -0.242188,-1.04883 z m 109.175781,0 c -0.0796,0.34984 -0.15604,0.70151 -0.24219,1.04883 0.0862,-0.34755 0.16251,-0.69875 0.24219,-1.04883 z m -107.003906,7.24805 c 0.120742,0.32071 0.248573,0.63719 0.375,0.95507 -0.12639,-0.31778 -0.254292,-0.63446 -0.375,-0.95507 z m 104.832036,0 c -0.12071,0.32061 -0.24861,0.63729 -0.375,0.95507 0.12642,-0.31788 0.25425,-0.63436 0.375,-0.95507 z m -103.558598,3.08398 c 0.140576,0.31474 0.279598,0.62977 0.425781,0.94141 -0.146135,-0.31153 -0.285248,-0.62678 -0.425781,-0.94141 z m 102.285158,0 c -0.14053,0.31463 -0.27965,0.62988 -0.42578,0.94141 0.14618,-0.31164 0.2852,-0.62667 0.42578,-0.94141 z m -100.582033,3.49609 c 0.05709,0.10709 0.10825,0.21755 0.166015,0.32422 -0.0577,-0.10654 -0.108991,-0.21725 -0.166015,-0.32422 z m 98.878903,0 c -0.057,0.10697 -0.10832,0.21768 -0.16601,0.32422 0.0578,-0.10667 0.10892,-0.21713 0.16601,-0.32422 z m -97.097653,3.10157 c 0.159253,0.25756 0.326945,0.5089 0.490234,0.76367 -0.16316,-0.25457 -0.331104,-0.50631 -0.490234,-0.76367 z m 95.316403,0 c -0.15913,0.25736 -0.32707,0.5091 -0.49023,0.76367 0.16329,-0.25477 0.33098,-0.50611 0.49023,-0.76367 z m -93.531247,2.69922 c 0.204896,0.29223 0.410794,0.58299 0.621094,0.87109 -0.210237,-0.28802 -0.416258,-0.57895 -0.621094,-0.87109 z m 91.746097,0 c -0.20484,0.29214 -0.41086,0.58307 -0.6211,0.87109 0.2103,-0.2881 0.4162,-0.57886 0.6211,-0.87109 z m -89.542972,2.93554 c 0.121998,0.15185 0.237785,0.30844 0.361328,0.45899 -0.123497,-0.15049 -0.239375,-0.30719 -0.361328,-0.45899 z m 87.339842,0 c -0.12195,0.1518 -0.23783,0.3085 -0.36133,0.45899 0.12355,-0.15055 0.23933,-0.30714 0.36133,-0.45899 z m -84.890623,2.85742 c 0.196157,0.21326 0.400205,0.41873 0.599609,0.62891 -0.199284,-0.21005 -0.403568,-0.41579 -0.599609,-0.62891 z m 82.441403,0 c -0.19604,0.21312 -0.40032,0.41886 -0.59961,0.62891 0.19941,-0.21018 0.40346,-0.41565 0.59961,-0.62891 z m -80.171872,2.31836 c 0.244189,0.23657 0.48983,0.471 0.738281,0.70313 -0.248244,-0.23194 -0.494292,-0.46675 -0.738281,-0.70313 z m 77.902342,0 c -0.24399,0.23638 -0.49003,0.47119 -0.73828,0.70313 0.24845,-0.23213 0.49409,-0.46656 0.73828,-0.70313 z m -75.300779,2.36719 c 0.184691,0.15782 0.364024,0.32112 0.550781,0.47656 -0.186721,-0.15541 -0.366126,-0.31877 -0.550781,-0.47656 z m 72.699219,0 c -0.18466,0.15779 -0.36406,0.32115 -0.55078,0.47656 0.18676,-0.15544 0.36609,-0.31874 0.55078,-0.47656 z m -69.628907,2.45508 c 0.183928,0.13613 0.374902,0.26256 0.560547,0.39648 -0.185625,-0.13391 -0.376638,-0.26036 -0.560547,-0.39648 z m 66.558597,0 c -0.18391,0.13612 -0.37493,0.26257 -0.56055,0.39648 0.18565,-0.13392 0.37662,-0.26035 0.56055,-0.39648 z m -63.927738,1.82227 c 0.295626,0.19375 0.593101,0.38399 0.892579,0.57226 -0.299194,-0.1881 -0.59723,-0.3787 -0.892579,-0.57226 z m 61.296878,0 c -0.29535,0.19356 -0.59339,0.38416 -0.89258,0.57226 0.29948,-0.18827 0.59695,-0.37851 0.89258,-0.57226 z m -58.365237,1.79296 c 0.25162,0.14366 0.499863,0.29179 0.753906,0.43164 -0.254104,-0.13988 -0.502226,-0.28794 -0.753906,-0.43164 z m 55.433597,0 c -0.25168,0.1437 -0.4998,0.29176 -0.75391,0.43164 0.25404,-0.13985 0.50229,-0.28798 0.75391,-0.43164 z m -51.835941,1.89844 c 0.04027,0.0192 0.07881,0.0414 0.119141,0.0606 v 7.99219 C 83.275129,156.06031 91.409537,158 100,158 c 8.59046,0 16.72487,-1.93969 24,-5.39648 v -7.99219 c 0.0403,-0.0192 0.0789,-0.0413 0.11914,-0.0606 C 116.8142,148.04267 108.63672,150 100,150 c -8.636723,0 -16.814198,-1.95733 -24.119141,-5.44922 z" transform="translate(32,36)" fill="#000000" fill-opacity="0.10196079"/>
    <path d="M 108,13.070886 C 90.081301,15.075938 76.279842,20.551834 76.004203,34.644968 50.146433,45.568093 32,71.164626 32,100.99949 v 0 V 110 h 200 v -9.00051 C 232,71.164626 213.85357,45.568093 187.9958,34.644983 187.72016,20.551834 173.9187,15.075938 156,13.070886 V 32 32 c 0,13.254834 -10.74517,24 -24,24 v 0 C 118.74517,56 108,45.254834 108,32 Z" id="use20" transform="translate(0,170)" fill="#5199e4" fill-opacity="1"/>
    <path d="M102,61.7390531 L102,110 L95,110 L95,58.1502625 C97.2037542,59.4600576 99.5467694,60.6607878 102,61.7390531 Z M169,58.1502625 L169,98.5 C169,100.432997 167.432997,102 165.5,102 C163.567003,102 162,100.432997 162,98.5 L162,61.7390531 C164.453231,60.6607878 166.796246,59.4600576 169,58.1502625 Z" fill-rule="evenodd" id="path3" fill="#F4F4F4" transform="translate(0,170)"/>
    <path id="use20-7" d="m 76.091414,203.09941 c -0.03995,0.4574 -0.07788,1.06862 -0.08721,1.54556 -3.155344,1.33292 -6.201671,2.88782 -9.1084,4.63877 6.617068,16.36972 35.69164,28.65868 65.09795,28.65868 -27.16144,0 -54.000637,-15.47181 -55.902336,-34.84301 z m 55.902336,34.84301 c 29.40631,0 58.50403,-12.29181 65.12109,-28.66153 -2.90674,-1.75095 -5.96369,-3.30299 -9.11904,-4.63591 -0.009,-0.47694 -0.0473,-1.08818 -0.0872,-1.54558 -1.9017,19.3712 -28.7534,34.84302 -55.91484,34.84302 z" fill="#000000" fill-opacity="0.16078432"/>
    <path d="M 35.117844,15.128077 C 36.175712,24.619802 44.225987,32 54,32 63.804206,32 71.874008,24.574136 72.891759,15.040055 72.973669,14.272746 72.116743,13 71.042767,13 c -14.894013,0 -26.304846,0 -33.955943,0 -1.080207,0 -2.074818,1.178444 -1.96898,2.128077 z" id="use14" transform="translate(78,134)" fill="#000000" fill-opacity="0.698039"/>
    <path id="path16" d="M 49 24 A 11 11 0 0 0 41.328125 27.15625 C 44.690284 30.167974 49.130913 32 54 32 C 55.852611 32 57.643063 31.734655 59.335938 31.240234 A 11 11 0 0 0 49 24 z " transform="translate(78,134)" fill="#ff4f6d" fill-opacity="1"/>
    <path id="circle6" d="M 21 0 A 11 11 0 0 0 10.689453 7.2460938 C 12.374933 7.7358219 14.156532 8 16 8 C 20.878168 8 25.325058 6.1604201 28.689453 3.1386719 A 11 11 0 0 0 21 0 z " transform="translate(116,158)" fill="#ff4f6d" fill-opacity="1"/>
    <path id="path15" d="M 39 13 C 39 15.769997 41.230003 18 44 18 L 65 18 C 67.769997 18 70 15.769997 70 13 L 39 13 z " transform="translate(78,134)" fill="#ffffff" fill-opacity="1"/>
    <path d="m 16,8 c 0,4.418278 5.372583,8 12,8 v 0 c 6.627417,0 12,-3.581722 12,-8" id="path8" transform="translate(104,122)" fill="#000000" fill-opacity="0.16"/>
    <path d="M 74.160167,22.447312 C 76.006676,18.648508 80.164422,16 84.99758,16 c 4.816097,0 8.961542,2.629842 10.817772,6.407124 0.551408,1.122074 -0.233248,2.040358 -1.024745,1.359899 -2.451101,-2.10724 -5.931891,-3.423235 -9.793027,-3.423235 -3.740374,0 -7.123822,1.234964 -9.560041,3.227853 -0.890746,0.728653 -1.817438,-0.01326 -1.277372,-1.124329 z" id="path10" transform="translate(76,90)" fill="#000000" fill-opacity="0.60000002"/>
    <path d="M16.1601674,22.4473116 C18.006676,18.648508 22.1644225,16 26.9975803,16 C31.8136766,16 35.9591217,18.629842 37.8153518,22.4071242 C38.3667605,23.5291977 37.5821037,24.4474817 36.790607,23.7670228 C34.3395063,21.6597833 30.8587163,20.3437884 26.9975803,20.3437884 C23.2572061,20.3437884 19.8737584,21.5787519 17.4375392,23.5716412 C16.5467928,24.3002944 15.6201012,23.5583844 16.1601674,22.4473116 Z" id="path9" transform="translate(76,90)" fill="#000000" fill-opacity="0.60000002"/>
    <path d="M85.0390934,6.21012364 C79.2775554,6.98346216 70.2929313,12.0052479 71.04426,17.8178111 C71.0689481,18.0080543 71.3567302,18.0673468 71.4809077,17.9084937 C73.9674041,14.7203351 93.1927973,10.0365481 100.194267,11.0147151 C100.835052,11.1044465 101.258066,10.4430343 100.82105,10.0302067 C97.0765663,6.49485426 90.2003792,5.51224825 85.0390934,6.21012364" transform="matrix(-0.9961947,0.08715574,0.08715574,0.9961947,246.62688,74.55027)" id="path12" fill-rule="evenodd" fill="#000000" fill-opacity="0.60000002"/>
    <path d="M26.0390934,6.21012364 C20.2775554,6.98346216 11.2929313,12.0052479 12.04426,17.8178111 C12.0689481,18.0080543 12.3567302,18.0673468 12.4809077,17.9084937 C14.9674041,14.7203351 34.1927973,10.0365481 41.1942673,11.0147151 C41.8350523,11.1044465 42.2580662,10.4430343 41.8210501,10.0302067 C38.0765663,6.49485426 31.2003792,5.51224825 26.0390934,6.21012364" transform="rotate(5,-874.05439,923.34314)" id="path11" fill="#000000" fill-opacity="0.60000002"/>
    <path d="m 94.251927,52.022115 c 0.123008,-0.0544 -0.182256,-0.0753 -0.915793,-0.0626 0.89153,-0.0018 1.196794,0.019 0.915793,0.0626 M 86.116978,36.301592 c -0.0021,-0.0196 0.01678,0.1511 0,0 M 193.76506,70.765666 c -0.26411,-3.316932 -0.73211,-6.61378 -1.51838,-9.854584 -0.62445,-2.575733 -1.47767,-5.033548 -2.48667,-7.491039 -0.60931,-1.484666 -2.03247,-3.523937 -2.19969,-5.12555 -0.16485,-1.57764 1.0662,-3.325355 1.32896,-5.162156 0.25503,-1.787561 0.21163,-3.667124 -0.1551,-5.438487 -0.83304,-4.022821 -3.59391,-7.763805 -7.85701,-8.812434 -0.95181,-0.234217 -2.96375,0.05442 -3.63631,-0.499856 -0.77113,-0.635592 -1.3081,-2.800879 -2.00622,-3.669391 -1.99042,-2.475957 -5.0948,-4.070443 -8.36875,-3.514543 -2.41097,0.40915 -1.0265,0.90771 -2.83389,-0.511194 -1.00496,-0.788821 -1.75591,-1.99327 -2.73193,-2.847204 -1.46724,-1.282845 -3.15048,-2.381039 -4.89192,-3.28227 -4.55683,-2.358038 -9.7539,-4.072062 -14.84399,-4.9075311 -9.28523,-1.5241886 -19.19523,-0.1953423 -28.19549,2.2193871 -4.47843,1.201534 -8.98714,2.72637 -13.14662,4.742964 -1.783496,0.864625 -2.81302,1.581852 -4.672555,1.808294 -2.92876,0.35667 -5.409037,0.338852 -8.183368,1.58088 -8.5363,3.821972 -12.381201,12.68883 -9.059473,21.174074 0.668181,1.706573 1.572883,3.205169 2.820088,4.58358 1.520734,1.680657 2.070823,1.349903 0.76104,3.282594 -1.958787,2.889965 -3.610062,5.971709 -4.954499,9.171696 -3.528979,8.401665 -4.119441,17.864268 -3.889649,26.824424 0.08041,3.136816 0.214989,6.312182 0.709564,9.418871 0.213643,1.34472 0.27353,3.873156 1.282194,4.870924 0.511734,0.506012 1.240812,0.788175 1.968208,0.586675 1.70948,-0.473616 1.12171,-1.73508 1.16141,-2.906163 0.199849,-5.883595 -0.06998,-11.088512 1.329297,-16.901162 1.033561,-4.294616 2.756163,-8.194984 4.98848,-12.035098 2.838593,-4.884206 5.90294,-9.173639 9.806719,-13.355844 0.917824,-0.983515 1.118346,-1.40044 2.349064,-1.471709 0.931954,-0.05378 2.295232,0.584407 3.20128,0.805342 1.99782,0.486898 3.99933,0.968289 6.03348,1.296127 3.73993,0.602873 7.44319,0.643366 11.21676,0.525124 7.42637,-0.232272 14.8847,-0.753185 22.08497,-2.623354 4.7819,-1.241703 9.02146,-3.470809 13.60183,-5.104817 0.0817,-0.02915 1.22971,-0.847131 1.4309,-0.813764 0.28093,0.04633 1.97696,1.825787 2.26327,2.049961 2.22559,1.745447 4.66684,2.478224 7.07041,3.829746 2.96341,1.666404 0.0935,-0.718199 1.72798,1.35865 0.47641,0.604816 0.72033,1.726334 1.10253,2.41149 1.21592,2.182781 2.90757,4.101218 4.93095,5.623463 1.95509,1.470736 4.89327,2.181161 5.89016,4.095386 0.76877,1.476892 1.02784,3.484091 1.64824,5.06076 1.62739,4.135232 3.77661,7.991543 5.92582,11.886404 1.73135,3.138759 3.6252,5.880679 3.81765,9.467463 0.0669,1.248506 -1.12104,8.737605 1.77273,6.459903 0.42897,-0.337556 1.35386,-4.155965 1.54395,-4.803867 0.77114,-2.632748 1.04534,-5.381147 1.39457,-8.086136 0.69442,-5.379528 0.92253,-10.497951 0.46901,-15.916029" id="use13" transform="translate(-1)" fill="#724133" fill-opacity="1"/>
  </g>
</svg>