<?xml version="1.0" standalone="no"?>
<!DOCTYPE svg PUBLIC "-//W3C//DTD SVG 20010904//EN"
 "http://www.w3.org/TR/2001/REC-SVG-20010904/DTD/svg10.dtd">
<svg version="1.0" xmlns="http://www.w3.org/2000/svg"
 width="560.000000pt" height="560.000000pt" viewBox="0 0 560.000000 560.000000"
 preserveAspectRatio="xMidYMid meet">
<metadata>
Created by potrace 1.14, written by Peter Selinger 2001-2017
</metadata>
<g transform="translate(0.000000,560.000000) scale(0.100000,-0.100000)"
fill="#000000" stroke="none">
<path d="M2600 5405 c-124 -20 -303 -68 -380 -103 -114 -52 -149 -63 -218 -73
-97 -14 -166 -46 -224 -106 -61 -62 -90 -129 -93 -212 -3 -91 24 -168 83 -233
l24 -26 -55 -96 c-94 -166 -134 -333 -136 -581 -2 -118 11 -294 25 -337 3 -10
-2 -19 -15 -23 -26 -8 -87 -70 -109 -109 -25 -46 -25 -446 -1 -491 26 -46 74
-92 116 -110 58 -25 68 -31 68 -41 3 -38 21 -122 42 -189 90 -286 268 -507
525 -652 52 -29 68 -43 68 -60 0 -18 -7 -23 -37 -28 -270 -42 -409 -94 -506
-191 -45 -46 -84 -122 -93 -186 -6 -48 -6 -48 -80 -83 -177 -85 -388 -260
-514 -425 -196 -259 -290 -548 -290 -897 l0 -153 2000 0 2001 0 -2 157 c-2
293 -61 522 -190 746 -134 230 -378 458 -611 570 -75 36 -76 37 -83 83 -16
107 -78 194 -185 258 -91 56 -206 89 -412 121 -32 5 -38 10 -38 30 0 15 7 26
20 30 79 25 311 218 398 331 100 130 177 318 218 532 3 13 12 25 22 28 40 12
88 41 115 69 60 63 62 71 62 305 0 186 -2 219 -18 247 -23 43 -85 102 -114
109 -27 7 -27 2 -8 75 32 122 44 251 41 419 -5 203 -26 304 -98 460 -30 65
-30 65 -14 116 51 161 -20 310 -161 338 -53 11 -60 15 -82 54 -35 64 -91 97
-163 97 -58 0 -61 2 -120 55 -172 155 -472 223 -778 175z"/>
</g>
</svg>
